<svg xmlns="http://www.w3.org/2000/svg" width="17" height="17">
    <path fill="#003DBA" fill-rule="evenodd" d="M16.29 16.665a.977.977 0 0 1-1.365-.275c-.068-.097-1.787-2.536-6.075-2.536-4.347 0-6.057 2.51-6.074 2.536a.982.982 0 0 1-1.366.275.997.997 0 0 1-.273-1.376c.092-.14 2.324-3.419 7.713-3.419 5.39 0 7.621 3.279 7.713 3.419a.997.997 0 0 1-.273 1.376zm-7.44-5.788c-2.175 0-3.939-1.776-3.939-3.97V4.923c0-2.194 1.764-3.97 3.939-3.97 2.176 0 3.939 1.776 3.939 3.97v1.984c0 2.194-1.763 3.97-3.939 3.97zm1.97-5.954a1.976 1.976 0 0 0-1.97-1.985 1.977 1.977 0 0 0-1.969 1.985v1.984c0 1.097.882 1.985 1.969 1.985 1.089 0 1.97-.888 1.97-1.985V4.923z"/>
</svg>
