<svg xmlns="http://www.w3.org/2000/svg" width="41" height="26">
    <path fill="#003DBA" fill-rule="evenodd" d="M36.452 14.796v3.592h-3.63v-3.592h-3.63v-3.592h3.63V7.612h3.63v3.592h3.631v3.592h-3.631zM12.855 25.571C5.831 25.571.149 19.95.149 13 .149 6.05 5.831.429 12.855.429c3.431 0 6.299 1.239 8.513 3.286L17.92 7.002c-.944-.898-2.596-1.94-5.065-1.94-4.338 0-7.877 3.556-7.877 7.938s3.539 7.938 7.877 7.938c5.028 0 6.916-3.574 7.207-5.424h-7.207v-4.31h11.999c.108.629.199 1.257.199 2.083 0 7.184-4.864 12.284-12.198 12.284z"/>
</svg>
