<svg xmlns="http://www.w3.org/2000/svg" width="33" height="32">
    <path fill="#003DBA" fill-rule="evenodd" d="M32.745 22.597c-.077 1.703-.347 2.866-.743 3.883a7.84 7.84 0 0 1-1.843 2.834 7.818 7.818 0 0 1-2.831 1.845c-1.017.396-2.179.667-3.88.744-1.705.078-2.25.096-6.591.096s-4.885-.018-6.59-.096c-1.701-.077-2.863-.348-3.88-.744a7.818 7.818 0 0 1-2.831-1.845 7.844 7.844 0 0 1-1.844-2.834c-.395-1.017-.665-2.18-.743-3.883C.892 20.89.873 20.345.873 16c0-4.345.019-4.89.096-6.597.078-1.703.348-2.866.743-3.883a7.844 7.844 0 0 1 1.844-2.834A7.834 7.834 0 0 1 6.387.84C7.404.445 8.566.175 10.267.097 11.972.019 12.516 0 16.857 0c4.341 0 4.886.019 6.591.097 1.701.078 2.863.348 3.88.743a7.834 7.834 0 0 1 2.831 1.846 7.84 7.84 0 0 1 1.843 2.834c.396 1.017.666 2.18.743 3.883.078 1.707.097 2.252.097 6.597 0 4.345-.019 4.89-.097 6.597zM29.868 9.535c-.071-1.56-.331-2.407-.55-2.971a4.951 4.951 0 0 0-1.196-1.84 4.944 4.944 0 0 0-1.838-1.196c-.563-.22-1.409-.48-2.968-.551-1.685-.078-2.191-.094-6.459-.094-4.267 0-4.773.016-6.459.094-1.558.071-2.404.331-2.968.551a4.94 4.94 0 0 0-1.837 1.196 4.951 4.951 0 0 0-1.196 1.84c-.219.564-.479 1.411-.551 2.971-.077 1.687-.093 2.193-.093 6.465s.016 4.778.093 6.465c.072 1.56.332 2.407.551 2.971.29.747.636 1.28 1.196 1.84a4.94 4.94 0 0 0 1.837 1.196c.564.22 1.41.48 2.968.552 1.686.077 2.191.093 6.459.093 4.269 0 4.774-.016 6.459-.093 1.559-.072 2.405-.332 2.968-.552a4.944 4.944 0 0 0 1.838-1.196c.56-.56.906-1.093 1.196-1.84.219-.564.479-1.411.55-2.971.077-1.687.093-2.193.093-6.465s-.016-4.778-.093-6.465zm-4.478-.156a1.918 1.918 0 0 1-1.918-1.92 1.919 1.919 0 1 1 1.918 1.92zm-8.533 14.837c-4.533 0-8.208-3.679-8.208-8.216 0-4.537 3.675-8.216 8.208-8.216 4.534 0 8.208 3.679 8.208 8.216 0 4.537-3.674 8.216-8.208 8.216zm0-13.549A5.331 5.331 0 0 0 11.529 16a5.331 5.331 0 0 0 5.328 5.333A5.33 5.33 0 0 0 22.185 16a5.33 5.33 0 0 0-5.328-5.333z"/>
</svg>
