<svg xmlns="http://www.w3.org/2000/svg" width="39" height="24">
    <path fill="#003DBA" fill-rule="evenodd" d="M37.91 2.119c.268-.892 0-1.547-1.276-1.547h-4.219c-1.072 0-1.567.566-1.835 1.191 0 0-2.145 5.218-5.184 8.608-.984.982-1.431 1.294-1.967 1.294-.268 0-.656-.312-.656-1.204V2.119c0-1.07-.312-1.547-1.206-1.547h-6.629c-.67 0-1.073.497-1.073.967 0 1.015 1.519 1.25 1.676 4.104v6.201c0 1.359-.246 1.605-.783 1.605-1.43 0-4.909-5.242-6.972-11.24C7.382 1.043 6.976.572 5.898.572H1.679C.474.572.233 1.138.233 1.763c0 1.115 1.43 6.646 6.659 13.961 3.486 4.996 8.398 7.704 12.867 7.704 2.682 0 3.014-.601 3.014-1.637v-3.776c0-1.203.254-1.443 1.103-1.443.626 0 1.698.312 4.201 2.721 2.861 2.855 3.332 4.135 4.941 4.135h4.219c1.205 0 1.808-.601 1.46-1.788-.38-1.183-1.746-2.9-3.558-4.934-.983-1.16-2.458-2.409-2.905-3.033-.626-.803-.447-1.161 0-1.874 0 0 5.14-7.226 5.676-9.68z"/>
</svg>
